<?xml version="1.0" encoding="iso-8859-1"?>
<!-- Generator: Adobe Illustrator 16.0.0, SVG Export Plug-In . SVG Version: 6.00 Build 0)  -->
<!DOCTYPE svg PUBLIC "-//W3C//DTD SVG 1.1//EN" "http://www.w3.org/Graphics/SVG/1.1/DTD/svg11.dtd">
<svg version="1.1" id="Capa_1" xmlns="http://www.w3.org/2000/svg" xmlns:xlink="http://www.w3.org/1999/xlink" x="0px" y="0px"
	 width="531.993px" height="531.993px" viewBox="0 0 531.993 531.993" style="enable-background:new 0 0 531.993 531.993;"
	 xml:space="preserve">
<g>
	<path d="M267.779,115.014c-20.209,0-36.61,16.234-36.61,36.276c0,20.029,16.401,36.266,36.61,36.266
		c20.221,0,36.608-16.235,36.608-36.266C304.388,131.248,287.999,115.014,267.779,115.014z M265.557,176.271
		c-11.933,0-21.615-9.242-21.615-20.622c0-11.396,9.683-20.636,21.615-20.636c11.933,0,21.602,9.24,21.602,20.636
		C287.158,167.029,277.489,176.271,265.557,176.271z"/>
	<path d="M530.016,395.278c-73.715-30.843-110.545-74.047-128.933-110.297c-8.938-24.388-10.373-47.396-10.373-47.396v-51.698
		c17.945-6.388,30.927-24.25,30.927-45.271c0-26.36-20.374-47.81-45.425-47.81c-3.654,0-7.187,0.497-10.594,1.365
		c-0.469,0.027-0.951,0.041-1.421,0.069c-0.579-0.193-1.159-0.386-1.71-0.621c-33.754-38.637-77.701-36.416-77.701-36.416
		c-114.808,0-118.077,102.365-118.077,102.365c-0.29,20.76-7.118,43.312-7.118,43.312c-2.966,8.305,7.118,12.761,7.118,12.761
		v26.151c-1.393,5.904-2.855,11.711-4.235,17.093c-9.283,18.221-65.038,126.187-115.124,132.282
		c-9.49,2.181-18.594,3.628-26.098,2.595c-2.966-0.4-6.276-0.125-8.938-0.222c-8-0.248-12.87,4.248-12.263,10.152
		c0.607,7.021,8.814,6.688,8.814,6.688s9.325,0.29,13.946,0.152c15.049-0.414,30.098-1.711,45.147-1.891
		c3.973-0.056,10.677,0,11.946,4.18s-6.042,6.814-9.739,7.904c-5.655,1.654-12.566-0.152-17.767,2.109
		c-5.242,2.276-12.194,6.359-12.746,12.098c-0.124,1.395,0.304,6.606,8.911,11.505c11.932,6.771,24.277,6.124,35.229-0.662
		c2.842-1.752,5.959-6.4,8.856-9.891c2.924-3.504,4.58-12.704,6.304-14.911c6.938-8.896,29.505,2.042,22.925,14.234
		c-1.117,2.097-5.145,3.684-7.945,4.317c-5.642,1.282-9.669,1.448-12.621,9.381c-2.566,7.807,17.656,14.662,20.566,14.854
		c17.201,4.234,47.934,1.021,42.417-9.587c-2.51-3.559-13.684-5.504-15.284-8.124c-1.876-3.118,11.532-9.381,13.27-9.974
		c20.125-6.925,38.996-6.745,55.465-1.71l0.179,0.068c0.179,0.056,0.331,0.097,0.524,0.125c4.911,1.559,9.601,3.559,14.056,5.902
		c5.2,5.794-7.518,11.794-7.518,11.794c-21.215,10.276,24.25,20.14,24.25,20.14c34.843,6.207,67.977-1.504,67.977-1.504
		c21.423-4.718,8.979-13.601-4.234-26.72c-13.2-13.117-0.428-15.642-0.428-15.642l15.365,0.165
		c6.719,0.11,2.497,12.746,2.497,12.746c-1.407,10.813,42.54,3.642,42.54,3.642c27.713-5.89-2.593-24.525-2.593-24.525
		c-11.808-8.041,15.05-6.429,15.05-6.429c10.428,0.47,8.759,4.388,8.759,4.388c-3.24,17.779,21.768,15.339,21.768,15.339
		l43.188-0.027c43.836,0.966-24.099-30.649-24.099-30.649c-2.249-5.504,18.967-9.325,61.106-3.076
		C544.291,407.225,530.016,395.278,530.016,395.278z M105.561,386.229c-2.842-2.428-6.594-3.615-10.939-3.974l13.146-13.726
		c0,0,26.319-27.96,35.147-52.072c0,0,3.614-13.229,9.987-22.772C145.812,317.397,120.183,398.657,105.561,386.229z
		 M333.202,155.829c-0.938,36.525-30.814,65.838-67.563,65.838c-37.34,0-67.604-30.264-67.604-67.604
		c0-37.341,30.264-67.604,67.604-67.604c31.395,0,57.741,21.437,65.342,50.458c0,0,1.394,5.008,1.904,9.076
		C333.409,150.077,333.202,155.829,333.202,155.829z M381.164,182.188c-22.374,0-40.596-19.283-40.596-42.981
		c0-23.712,18.222-42.996,40.596-42.996c22.36,0,40.609,19.284,40.609,42.996C421.774,162.905,403.553,182.188,381.164,182.188z
		 M443.886,372.035c-8.843-3.021-18.69-21.091-18.69-21.091c12.056,1.406,25.312,21.091,25.312,21.091H443.886z"/>
	<path d="M47.323,391.167c0,0,0.014,0,0.028,0c3.021-0.688,6.069-1.462,9.131-2.248L47.323,391.167z"/>
	<path d="M375.013,115.014c-14.637,0-26.513,11.876-26.513,26.524c0,14.635,11.876,26.512,26.513,26.512
		c14.648,0,26.525-11.877,26.525-26.512C401.538,126.89,389.661,115.014,375.013,115.014z M373.812,157.566
		c-8.855,0-16.028-7.173-16.028-16.028c0-8.854,7.173-16.027,16.028-16.027c8.854,0,16.029,7.173,16.029,16.027
		C389.842,150.394,382.667,157.566,373.812,157.566z"/>
</g>
<g>
</g>
<g>
</g>
<g>
</g>
<g>
</g>
<g>
</g>
<g>
</g>
<g>
</g>
<g>
</g>
<g>
</g>
<g>
</g>
<g>
</g>
<g>
</g>
<g>
</g>
<g>
</g>
<g>
</g>
</svg>
